STARTFONT 2.1
FONT No-Name-Font
SIZE 18 75 75
FONTBOUNDINGBOX 11 18 0 -2
COMMENT "Generated by fontforge, http://fontforge.sourceforge.net"
COMMENT "BDF generated by bmptobdf. E-mail to author at <tatrader@gmail.com>."
COMMENT "Original font by program user"
STARTPROPERTIES 2
FONT_DESCENT 3
FONT_ASCENT 15
ENDPROPERTIES
CHARS 95
STARTCHAR char0020
ENCODING 32
SWIDTH 909 0
DWIDTH 10 0
BBX 1 1 14 -2
BITMAP
00
ENDCHAR
STARTCHAR char0021
ENCODING 33
SWIDTH 909 0
DWIDTH 10 0
BBX 2 12 4 2
BITMAP
C0
C0
C0
C0
C0
C0
C0
C0
C0
00
C0
C0
ENDCHAR
STARTCHAR char0022
ENCODING 34
SWIDTH 909 0
DWIDTH 10 0
BBX 6 5 2 9
BITMAP
CC
CC
CC
44
44
ENDCHAR
STARTCHAR char0023
ENCODING 35
SWIDTH 909 0
DWIDTH 10 0
BBX 9 15 1 0
BITMAP
1B00
1B00
1B00
1B00
1B00
7F80
3600
3600
3600
FF00
6C00
6C00
6C00
6C00
6C00
ENDCHAR
STARTCHAR char0024
ENCODING 36
SWIDTH 909 0
DWIDTH 10 0
BBX 6 15 2 0
BITMAP
20
20
78
CC
C4
C0
60
18
0C
8C
CC
78
10
10
10
ENDCHAR
STARTCHAR char0025
ENCODING 37
SWIDTH 909 0
DWIDTH 10 0
BBX 9 12 1 2
BITMAP
3800
6C00
4400
6C00
3980
0E00
3800
CE00
1B00
1100
1B00
0E00
ENDCHAR
STARTCHAR char0026
ENCODING 38
SWIDTH 909 0
DWIDTH 10 0
BBX 8 11 1 2
BITMAP
38
64
4C
68
30
73
DE
CC
CC
DE
63
ENDCHAR
STARTCHAR char0027
ENCODING 39
SWIDTH 909 0
DWIDTH 10 0
BBX 4 5 3 9
BITMAP
30
30
60
60
C0
ENDCHAR
STARTCHAR char0028
ENCODING 40
SWIDTH 909 0
DWIDTH 10 0
BBX 4 14 3 0
BITMAP
30
60
40
C0
C0
C0
C0
C0
C0
C0
C0
40
60
30
ENDCHAR
STARTCHAR char0029
ENCODING 41
SWIDTH 909 0
DWIDTH 10 0
BBX 3 14 4 0
BITMAP
80
C0
40
60
60
60
60
60
60
60
60
40
C0
80
ENDCHAR
STARTCHAR char002a
ENCODING 42
SWIDTH 909 0
DWIDTH 10 0
BBX 7 8 2 6
BITMAP
10
10
38
FE
38
28
44
44
ENDCHAR
STARTCHAR char002b
ENCODING 43
SWIDTH 909 0
DWIDTH 10 0
BBX 8 9 1 3
BITMAP
18
18
18
18
FF
18
18
18
18
ENDCHAR
STARTCHAR char002c
ENCODING 44
SWIDTH 909 0
DWIDTH 10 0
BBX 4 5 3 -1
BITMAP
30
30
60
60
C0
ENDCHAR
STARTCHAR char002d
ENCODING 45
SWIDTH 909 0
DWIDTH 10 0
BBX 8 1 1 7
BITMAP
FF
ENDCHAR
STARTCHAR char002e
ENCODING 46
SWIDTH 909 0
DWIDTH 10 0
BBX 3 2 4 2
BITMAP
E0
E0
ENDCHAR
STARTCHAR char002f
ENCODING 47
SWIDTH 909 0
DWIDTH 10 0
BBX 8 16 1 -1
BITMAP
01
03
03
06
06
0C
0C
18
18
30
30
60
60
C0
C0
80
ENDCHAR
STARTCHAR char0030
ENCODING 48
SWIDTH 909 0
DWIDTH 10 0
BBX 8 12 1 2
BITMAP
3C
66
C3
C3
C3
C3
C3
C3
C3
C3
66
3C
ENDCHAR
STARTCHAR char0031
ENCODING 49
SWIDTH 909 0
DWIDTH 10 0
BBX 8 12 1 2
BITMAP
18
38
78
D8
18
18
18
18
18
18
18
FF
ENDCHAR
STARTCHAR char0032
ENCODING 50
SWIDTH 909 0
DWIDTH 10 0
BBX 8 12 1 2
BITMAP
1C
36
63
63
03
03
06
0C
18
30
60
FF
ENDCHAR
STARTCHAR char0033
ENCODING 51
SWIDTH 909 0
DWIDTH 10 0
BBX 7 12 2 2
BITMAP
78
CC
06
06
0C
38
0C
06
06
06
CC
78
ENDCHAR
STARTCHAR char0034
ENCODING 52
SWIDTH 909 0
DWIDTH 10 0
BBX 7 12 2 2
BITMAP
0C
1C
1C
2C
2C
4C
4C
8C
FE
0C
0C
0C
ENDCHAR
STARTCHAR char0035
ENCODING 53
SWIDTH 909 0
DWIDTH 10 0
BBX 7 12 2 2
BITMAP
FC
C0
C0
C0
F8
CC
06
06
06
06
CC
78
ENDCHAR
STARTCHAR char0036
ENCODING 54
SWIDTH 909 0
DWIDTH 10 0
BBX 8 12 1 2
BITMAP
1E
30
60
60
DC
E6
C3
C3
C3
C3
66
3C
ENDCHAR
STARTCHAR char0037
ENCODING 55
SWIDTH 909 0
DWIDTH 10 0
BBX 7 12 2 2
BITMAP
FE
06
06
06
0C
0C
0C
0C
18
18
18
18
ENDCHAR
STARTCHAR char0038
ENCODING 56
SWIDTH 909 0
DWIDTH 10 0
BBX 7 12 2 2
BITMAP
38
6C
C6
C6
6C
38
6C
C6
C6
C6
6C
38
ENDCHAR
STARTCHAR char0039
ENCODING 57
SWIDTH 909 0
DWIDTH 10 0
BBX 7 12 2 2
BITMAP
38
44
C6
C6
C6
C6
6E
3E
06
04
08
70
ENDCHAR
STARTCHAR char003a
ENCODING 58
SWIDTH 909 0
DWIDTH 10 0
BBX 3 8 4 2
BITMAP
E0
E0
00
00
00
00
E0
E0
ENDCHAR
STARTCHAR char003b
ENCODING 59
SWIDTH 909 0
DWIDTH 10 0
BBX 5 11 3 -1
BITMAP
38
38
00
00
00
00
30
30
60
60
C0
ENDCHAR
STARTCHAR char003c
ENCODING 60
SWIDTH 909 0
DWIDTH 10 0
BBX 10 9 0 3
BITMAP
00C0
0380
0E00
3800
F000
3800
0E00
0380
00C0
ENDCHAR
STARTCHAR char003d
ENCODING 61
SWIDTH 909 0
DWIDTH 10 0
BBX 9 4 1 5
BITMAP
FF80
0000
0000
FF80
ENDCHAR
STARTCHAR char003e
ENCODING 62
SWIDTH 909 0
DWIDTH 10 0
BBX 10 9 0 3
BITMAP
C000
7000
1C00
0700
01C0
0700
1C00
7000
C000
ENDCHAR
STARTCHAR char003f
ENCODING 63
SWIDTH 909 0
DWIDTH 10 0
BBX 7 11 2 2
BITMAP
7C
C6
C6
06
0E
1C
18
18
00
18
18
ENDCHAR
STARTCHAR char0040
ENCODING 64
SWIDTH 909 0
DWIDTH 10 0
BBX 8 13 1 1
BITMAP
3C
66
C2
C2
CE
D6
D6
D6
CE
C0
C1
66
3C
ENDCHAR
STARTCHAR char0041
ENCODING 65
SWIDTH 909 0
DWIDTH 10 0
BBX 9 12 1 2
BITMAP
0800
0800
1C00
1C00
3600
3600
6300
6300
7F00
C180
C180
C180
ENDCHAR
STARTCHAR char0042
ENCODING 66
SWIDTH 909 0
DWIDTH 10 0
BBX 9 11 1 2
BITMAP
FE00
C300
C180
C180
C300
FE00
C300
C180
C180
C300
FE00
ENDCHAR
STARTCHAR char0043
ENCODING 67
SWIDTH 909 0
DWIDTH 10 0
BBX 9 11 1 2
BITMAP
3E00
6300
C180
C000
C000
C000
C000
C000
C180
6300
3E00
ENDCHAR
STARTCHAR char0044
ENCODING 68
SWIDTH 909 0
DWIDTH 10 0
BBX 9 11 1 2
BITMAP
FE00
C300
C180
C180
C180
C180
C180
C180
C180
C300
FE00
ENDCHAR
STARTCHAR char0045
ENCODING 69
SWIDTH 909 0
DWIDTH 10 0
BBX 8 11 1 2
BITMAP
FF
C0
C0
C0
C0
FC
C0
C0
C0
C0
FF
ENDCHAR
STARTCHAR char0046
ENCODING 70
SWIDTH 909 0
DWIDTH 10 0
BBX 8 11 1 2
BITMAP
FF
C0
C0
C0
C0
F8
C0
C0
C0
C0
C0
ENDCHAR
STARTCHAR char0047
ENCODING 71
SWIDTH 909 0
DWIDTH 10 0
BBX 9 11 1 2
BITMAP
3F00
6180
C080
C000
C000
C780
C080
C080
C080
6180
3F00
ENDCHAR
STARTCHAR char0048
ENCODING 72
SWIDTH 909 0
DWIDTH 10 0
BBX 9 11 1 2
BITMAP
C180
C180
C180
C180
C180
FF80
C180
C180
C180
C180
C180
ENDCHAR
STARTCHAR char0049
ENCODING 73
SWIDTH 909 0
DWIDTH 10 0
BBX 8 11 1 2
BITMAP
FF
18
18
18
18
18
18
18
18
18
FF
ENDCHAR
STARTCHAR char004a
ENCODING 74
SWIDTH 909 0
DWIDTH 10 0
BBX 9 11 1 2
BITMAP
1F80
0600
0600
0600
0600
0600
8600
8600
C600
6C00
3800
ENDCHAR
STARTCHAR char004b
ENCODING 75
SWIDTH 909 0
DWIDTH 10 0
BBX 9 11 1 2
BITMAP
C300
C600
CC00
D800
F000
F000
D800
CC00
C600
C300
C180
ENDCHAR
STARTCHAR char004c
ENCODING 76
SWIDTH 909 0
DWIDTH 10 0
BBX 8 11 1 2
BITMAP
C0
C0
C0
C0
C0
C0
C0
C0
C0
C0
FF
ENDCHAR
STARTCHAR char004d
ENCODING 77
SWIDTH 909 0
DWIDTH 10 0
BBX 9 11 1 2
BITMAP
C180
E380
E380
F780
D580
DD80
C980
C980
C180
C180
C180
ENDCHAR
STARTCHAR char004e
ENCODING 78
SWIDTH 909 0
DWIDTH 10 0
BBX 9 11 1 2
BITMAP
E180
F180
F180
D980
D980
CD80
CD80
C780
C780
C380
C380
ENDCHAR
STARTCHAR char004f
ENCODING 79
SWIDTH 909 0
DWIDTH 10 0
BBX 9 11 1 2
BITMAP
3E00
6300
C180
C180
C180
C180
C180
C180
C180
6300
3E00
ENDCHAR
STARTCHAR char0050
ENCODING 80
SWIDTH 909 0
DWIDTH 10 0
BBX 9 11 1 2
BITMAP
FE00
C300
C180
C180
C180
C300
FE00
C000
C000
C000
C000
ENDCHAR
STARTCHAR char0051
ENCODING 81
SWIDTH 909 0
DWIDTH 10 0
BBX 9 13 1 0
BITMAP
3E00
6300
C180
C180
C180
C180
C180
C180
C180
6300
3E00
3880
4700
ENDCHAR
STARTCHAR char0052
ENCODING 82
SWIDTH 909 0
DWIDTH 10 0
BBX 9 11 1 2
BITMAP
FE00
C300
C180
C180
C180
C300
FE00
C600
C300
C180
C080
ENDCHAR
STARTCHAR char0053
ENCODING 83
SWIDTH 909 0
DWIDTH 10 0
BBX 8 11 1 2
BITMAP
3E
63
C1
C0
60
3C
06
03
83
C6
7C
ENDCHAR
STARTCHAR char0054
ENCODING 84
SWIDTH 909 0
DWIDTH 10 0
BBX 10 11 0 2
BITMAP
FFC0
0C00
0C00
0C00
0C00
0C00
0C00
0C00
0C00
0C00
0C00
ENDCHAR
STARTCHAR char0055
ENCODING 85
SWIDTH 909 0
DWIDTH 10 0
BBX 9 11 1 2
BITMAP
C180
C180
C180
C180
C180
C180
C180
C180
C180
6300
3E00
ENDCHAR
STARTCHAR char0056
ENCODING 86
SWIDTH 909 0
DWIDTH 10 0
BBX 9 11 1 2
BITMAP
C180
C180
C180
6300
6300
3600
3600
1C00
1C00
0800
0800
ENDCHAR
STARTCHAR char0057
ENCODING 87
SWIDTH 909 0
DWIDTH 10 0
BBX 9 11 1 2
BITMAP
C180
C180
C980
C980
C980
6B00
6B00
6B00
7700
2200
2200
ENDCHAR
STARTCHAR char0058
ENCODING 88
SWIDTH 909 0
DWIDTH 10 0
BBX 9 11 1 2
BITMAP
8080
C180
6300
3600
1C00
1C00
1C00
3600
6300
C180
8080
ENDCHAR
STARTCHAR char0059
ENCODING 89
SWIDTH 909 0
DWIDTH 10 0
BBX 9 11 1 2
BITMAP
C180
C180
6300
6300
3600
3600
1C00
0C00
0C00
0C00
0C00
ENDCHAR
STARTCHAR char005a
ENCODING 90
SWIDTH 909 0
DWIDTH 10 0
BBX 9 11 1 2
BITMAP
FF80
0080
0180
0300
0600
0C00
1800
3000
6000
C000
FF80
ENDCHAR
STARTCHAR char005b
ENCODING 91
SWIDTH 909 0
DWIDTH 10 0
BBX 4 15 3 -1
BITMAP
F0
C0
C0
C0
C0
C0
C0
C0
C0
C0
C0
C0
C0
C0
F0
ENDCHAR
STARTCHAR char005c
ENCODING 92
SWIDTH 909 0
DWIDTH 10 0
BBX 9 16 1 -1
BITMAP
C000
C000
6000
6000
3000
3000
1800
1800
0C00
0C00
0600
0600
0300
0300
0180
0180
ENDCHAR
STARTCHAR char005d
ENCODING 93
SWIDTH 909 0
DWIDTH 10 0
BBX 4 15 3 -1
BITMAP
F0
30
30
30
30
30
30
30
30
30
30
30
30
30
F0
ENDCHAR
STARTCHAR char005e
ENCODING 94
SWIDTH 909 0
DWIDTH 10 0
BBX 7 5 2 9
BITMAP
10
38
6C
C6
82
ENDCHAR
STARTCHAR char005f
ENCODING 95
SWIDTH 909 0
DWIDTH 10 0
BBX 11 1 0 -2
BITMAP
FFE0
ENDCHAR
STARTCHAR char0060
ENCODING 96
SWIDTH 909 0
DWIDTH 10 0
BBX 4 5 3 9
BITMAP
C0
C0
60
60
30
ENDCHAR
STARTCHAR char0061
ENCODING 97
SWIDTH 909 0
DWIDTH 10 0
BBX 8 9 1 2
BITMAP
7E
C7
C3
1F
63
C3
C3
E7
7B
ENDCHAR
STARTCHAR char0062
ENCODING 98
SWIDTH 909 0
DWIDTH 10 0
BBX 9 12 1 2
BITMAP
C000
C000
C000
DE00
F300
C180
C180
C180
C180
C180
E300
DE00
ENDCHAR
STARTCHAR char0063
ENCODING 99
SWIDTH 909 0
DWIDTH 10 0
BBX 9 9 1 2
BITMAP
3F00
6180
C000
C000
C000
C000
C000
6180
3F00
ENDCHAR
STARTCHAR char0064
ENCODING 100
SWIDTH 909 0
DWIDTH 10 0
BBX 9 12 1 2
BITMAP
0180
0180
0180
3D80
6380
C180
C180
C180
C180
C180
6380
3D80
ENDCHAR
STARTCHAR char0065
ENCODING 101
SWIDTH 909 0
DWIDTH 10 0
BBX 9 9 1 2
BITMAP
3E00
6300
C180
C180
FF80
C000
C000
6180
3F00
ENDCHAR
STARTCHAR char0066
ENCODING 102
SWIDTH 909 0
DWIDTH 10 0
BBX 9 12 1 2
BITMAP
0F00
1980
3000
FE00
3000
3000
3000
3000
3000
3000
3000
3000
ENDCHAR
STARTCHAR char0067
ENCODING 103
SWIDTH 909 0
DWIDTH 10 0
BBX 9 13 1 -2
BITMAP
3D80
6380
C180
C180
C180
C180
C180
6380
3D80
0180
0180
6300
3E00
ENDCHAR
STARTCHAR char0068
ENCODING 104
SWIDTH 909 0
DWIDTH 10 0
BBX 9 12 1 2
BITMAP
C000
C000
C000
DF00
E380
C180
C180
C180
C180
C180
C180
C180
ENDCHAR
STARTCHAR char0069
ENCODING 105
SWIDTH 909 0
DWIDTH 10 0
BBX 8 12 1 2
BITMAP
18
18
00
78
18
18
18
18
18
18
18
FF
ENDCHAR
STARTCHAR char006a
ENCODING 106
SWIDTH 909 0
DWIDTH 10 0
BBX 6 16 2 -2
BITMAP
0C
0C
00
FC
0C
0C
0C
0C
0C
0C
0C
0C
0C
0C
18
F0
ENDCHAR
STARTCHAR char006b
ENCODING 107
SWIDTH 909 0
DWIDTH 10 0
BBX 8 12 1 2
BITMAP
C0
C0
C0
C3
C6
CC
D8
F0
D8
CC
C6
C3
ENDCHAR
STARTCHAR char006c
ENCODING 108
SWIDTH 909 0
DWIDTH 10 0
BBX 8 12 1 2
BITMAP
78
18
18
18
18
18
18
18
18
18
18
FF
ENDCHAR
STARTCHAR char006d
ENCODING 109
SWIDTH 909 0
DWIDTH 10 0
BBX 10 9 0 2
BITMAP
D980
EEC0
CCC0
CCC0
CCC0
CCC0
CCC0
CCC0
CCC0
ENDCHAR
STARTCHAR char006e
ENCODING 110
SWIDTH 909 0
DWIDTH 10 0
BBX 9 9 1 2
BITMAP
DF00
E380
C180
C180
C180
C180
C180
C180
C180
ENDCHAR
STARTCHAR char006f
ENCODING 111
SWIDTH 909 0
DWIDTH 10 0
BBX 9 9 1 2
BITMAP
3E00
6300
C180
C180
C180
C180
C180
6300
3E00
ENDCHAR
STARTCHAR char0070
ENCODING 112
SWIDTH 909 0
DWIDTH 10 0
BBX 9 13 1 -2
BITMAP
DE00
E300
C180
C180
C180
C180
C180
E300
DE00
C000
C000
C000
C000
ENDCHAR
STARTCHAR char0071
ENCODING 113
SWIDTH 909 0
DWIDTH 10 0
BBX 9 13 1 -2
BITMAP
3D80
6380
C180
C180
C180
C180
C180
6380
3D80
0180
0180
0180
0180
ENDCHAR
STARTCHAR char0072
ENCODING 114
SWIDTH 909 0
DWIDTH 10 0
BBX 9 9 1 2
BITMAP
E700
6F80
7180
6000
6000
6000
6000
6000
F800
ENDCHAR
STARTCHAR char0073
ENCODING 115
SWIDTH 909 0
DWIDTH 10 0
BBX 9 9 1 2
BITMAP
7F00
E380
C180
F000
7F00
0780
C180
E380
7F00
ENDCHAR
STARTCHAR char0074
ENCODING 116
SWIDTH 909 0
DWIDTH 10 0
BBX 8 11 1 2
BITMAP
60
60
FE
60
60
60
60
60
63
73
3E
ENDCHAR
STARTCHAR char0075
ENCODING 117
SWIDTH 909 0
DWIDTH 10 0
BBX 9 9 1 2
BITMAP
C180
C180
C180
C180
C180
C180
C180
E380
3D80
ENDCHAR
STARTCHAR char0076
ENCODING 118
SWIDTH 909 0
DWIDTH 10 0
BBX 9 9 1 2
BITMAP
C180
C180
6180
6300
3300
3600
1E00
1C00
0C00
ENDCHAR
STARTCHAR char0077
ENCODING 119
SWIDTH 909 0
DWIDTH 10 0
BBX 9 9 1 2
BITMAP
C180
C180
C980
C980
DD80
FF80
7700
6300
6300
ENDCHAR
STARTCHAR char0078
ENCODING 120
SWIDTH 909 0
DWIDTH 10 0
BBX 9 9 1 2
BITMAP
C180
6300
3600
1C00
0800
1C00
3600
6300
C180
ENDCHAR
STARTCHAR char0079
ENCODING 121
SWIDTH 909 0
DWIDTH 10 0
BBX 9 13 1 -2
BITMAP
C180
C180
C180
6180
6300
6300
3600
3600
1C00
0C00
1800
1800
F000
ENDCHAR
STARTCHAR char007a
ENCODING 122
SWIDTH 909 0
DWIDTH 10 0
BBX 9 9 1 2
BITMAP
FF00
0300
0600
0C00
1800
3000
6000
E000
FF80
ENDCHAR
STARTCHAR char007b
ENCODING 123
SWIDTH 909 0
DWIDTH 10 0
BBX 5 15 3 -1
BITMAP
18
30
30
30
30
20
C0
20
30
30
30
30
30
30
18
ENDCHAR
STARTCHAR char007c
ENCODING 124
SWIDTH 909 0
DWIDTH 10 0
BBX 2 15 4 -1
BITMAP
C0
C0
C0
C0
C0
C0
C0
C0
C0
C0
C0
C0
C0
C0
C0
ENDCHAR
STARTCHAR char007d
ENCODING 125
SWIDTH 909 0
DWIDTH 10 0
BBX 5 15 3 -1
BITMAP
C0
60
60
60
60
20
18
20
60
60
60
60
60
60
C0
ENDCHAR
STARTCHAR char007e
ENCODING 126
SWIDTH 909 0
DWIDTH 10 0
BBX 8 4 1 5
BITMAP
60
F9
9F
06
ENDCHAR
ENDFONT
